<mxfile host="Electron" agent="Mozilla/5.0 (X11; Linux x86_64) AppleWebKit/537.36 (KHTML, like Gecko) draw.io/27.0.9 Chrome/134.0.6998.205 Electron/35.4.0 Safari/537.36" version="27.0.9" pages="2">
  <diagram name="Main" id="lzT9kkSmWbgCvg5gTBcA">
    <mxGraphModel dx="1007" dy="1204" grid="1" gridSize="10" guides="1" tooltips="1" connect="1" arrows="1" fold="1" page="1" pageScale="1" pageWidth="850" pageHeight="1100" math="0" shadow="0">
      <root>
        <mxCell id="0" />
        <mxCell id="1" parent="0" />
        <mxCell id="-De1HTk-nKf7eVAS1qph-63" style="edgeStyle=orthogonalEdgeStyle;rounded=0;orthogonalLoop=1;jettySize=auto;html=1;" edge="1" parent="1" source="-De1HTk-nKf7eVAS1qph-1" target="-De1HTk-nKf7eVAS1qph-21">
          <mxGeometry relative="1" as="geometry">
            <Array as="points">
              <mxPoint x="260" y="180" />
            </Array>
          </mxGeometry>
        </mxCell>
        <mxCell id="-De1HTk-nKf7eVAS1qph-1" value="Client_1" style="whiteSpace=wrap;html=1;" vertex="1" parent="1">
          <mxGeometry x="200" y="80" width="120" height="40" as="geometry" />
        </mxCell>
        <mxCell id="-De1HTk-nKf7eVAS1qph-39" style="edgeStyle=orthogonalEdgeStyle;rounded=0;orthogonalLoop=1;jettySize=auto;html=1;" edge="1" parent="1" source="-De1HTk-nKf7eVAS1qph-4" target="-De1HTk-nKf7eVAS1qph-21">
          <mxGeometry relative="1" as="geometry" />
        </mxCell>
        <mxCell id="-De1HTk-nKf7eVAS1qph-4" value="Client_2" style="whiteSpace=wrap;html=1;" vertex="1" parent="1">
          <mxGeometry x="360" y="80" width="120" height="40" as="geometry" />
        </mxCell>
        <mxCell id="-De1HTk-nKf7eVAS1qph-9" style="edgeStyle=orthogonalEdgeStyle;rounded=0;orthogonalLoop=1;jettySize=auto;html=1;" edge="1" parent="1" source="-De1HTk-nKf7eVAS1qph-7" target="-De1HTk-nKf7eVAS1qph-8">
          <mxGeometry relative="1" as="geometry" />
        </mxCell>
        <mxCell id="-De1HTk-nKf7eVAS1qph-7" value="Product_2" style="whiteSpace=wrap;html=1;" vertex="1" parent="1">
          <mxGeometry x="360" y="600" width="120" height="40" as="geometry" />
        </mxCell>
        <mxCell id="-De1HTk-nKf7eVAS1qph-29" value="" style="edgeStyle=orthogonalEdgeStyle;rounded=0;orthogonalLoop=1;jettySize=auto;html=1;" edge="1" parent="1" source="-De1HTk-nKf7eVAS1qph-8" target="-De1HTk-nKf7eVAS1qph-28">
          <mxGeometry relative="1" as="geometry" />
        </mxCell>
        <mxCell id="-De1HTk-nKf7eVAS1qph-49" style="edgeStyle=orthogonalEdgeStyle;rounded=0;orthogonalLoop=1;jettySize=auto;html=1;" edge="1" parent="1" source="-De1HTk-nKf7eVAS1qph-8" target="-De1HTk-nKf7eVAS1qph-48">
          <mxGeometry relative="1" as="geometry" />
        </mxCell>
        <mxCell id="-De1HTk-nKf7eVAS1qph-8" value="System" style="whiteSpace=wrap;html=1;" vertex="1" parent="1">
          <mxGeometry x="360" y="680" width="120" height="40" as="geometry" />
        </mxCell>
        <mxCell id="-De1HTk-nKf7eVAS1qph-12" value="" style="endArrow=none;dashed=1;html=1;rounded=0;" edge="1" parent="1">
          <mxGeometry width="50" height="50" relative="1" as="geometry">
            <mxPoint x="180" y="60" as="sourcePoint" />
            <mxPoint x="180" y="60" as="targetPoint" />
            <Array as="points">
              <mxPoint x="660" y="60" />
              <mxPoint x="660" y="140" />
              <mxPoint x="180" y="140" />
            </Array>
          </mxGeometry>
        </mxCell>
        <mxCell id="-De1HTk-nKf7eVAS1qph-64" style="edgeStyle=orthogonalEdgeStyle;rounded=0;orthogonalLoop=1;jettySize=auto;html=1;" edge="1" parent="1" source="-De1HTk-nKf7eVAS1qph-13" target="-De1HTk-nKf7eVAS1qph-21">
          <mxGeometry relative="1" as="geometry">
            <Array as="points">
              <mxPoint x="580" y="180" />
            </Array>
          </mxGeometry>
        </mxCell>
        <mxCell id="-De1HTk-nKf7eVAS1qph-13" value="Client_2" style="whiteSpace=wrap;html=1;" vertex="1" parent="1">
          <mxGeometry x="520" y="80" width="120" height="40" as="geometry" />
        </mxCell>
        <mxCell id="fch6J81OmZ79uEB_WLW9-2" style="edgeStyle=orthogonalEdgeStyle;rounded=0;orthogonalLoop=1;jettySize=auto;html=1;" edge="1" parent="1" source="-De1HTk-nKf7eVAS1qph-21" target="fch6J81OmZ79uEB_WLW9-1">
          <mxGeometry relative="1" as="geometry" />
        </mxCell>
        <mxCell id="-De1HTk-nKf7eVAS1qph-21" value="System" style="whiteSpace=wrap;html=1;" vertex="1" parent="1">
          <mxGeometry x="360" y="160" width="120" height="40" as="geometry" />
        </mxCell>
        <mxCell id="-De1HTk-nKf7eVAS1qph-26" value="Record" style="whiteSpace=wrap;html=1;" vertex="1" parent="1">
          <mxGeometry x="280" y="820" width="80" height="20" as="geometry" />
        </mxCell>
        <mxCell id="-De1HTk-nKf7eVAS1qph-35" style="edgeStyle=orthogonalEdgeStyle;rounded=0;orthogonalLoop=1;jettySize=auto;html=1;" edge="1" parent="1" source="-De1HTk-nKf7eVAS1qph-28" target="-De1HTk-nKf7eVAS1qph-30">
          <mxGeometry relative="1" as="geometry">
            <Array as="points">
              <mxPoint x="620" y="780" />
              <mxPoint x="620" y="830" />
            </Array>
          </mxGeometry>
        </mxCell>
        <mxCell id="-De1HTk-nKf7eVAS1qph-28" value="WebSocket" style="whiteSpace=wrap;html=1;" vertex="1" parent="1">
          <mxGeometry x="480" y="760" width="120" height="40" as="geometry" />
        </mxCell>
        <mxCell id="-De1HTk-nKf7eVAS1qph-30" value="Send" style="whiteSpace=wrap;html=1;" vertex="1" parent="1">
          <mxGeometry x="520" y="820" width="80" height="20" as="geometry" />
        </mxCell>
        <mxCell id="-De1HTk-nKf7eVAS1qph-40" style="edgeStyle=orthogonalEdgeStyle;rounded=0;orthogonalLoop=1;jettySize=auto;html=1;" edge="1" parent="1" source="-De1HTk-nKf7eVAS1qph-41" target="-De1HTk-nKf7eVAS1qph-42">
          <mxGeometry relative="1" as="geometry">
            <Array as="points">
              <mxPoint x="620" y="340" />
              <mxPoint x="620" y="390" />
            </Array>
          </mxGeometry>
        </mxCell>
        <mxCell id="-De1HTk-nKf7eVAS1qph-72" style="edgeStyle=orthogonalEdgeStyle;rounded=0;orthogonalLoop=1;jettySize=auto;html=1;" edge="1" parent="1" source="-De1HTk-nKf7eVAS1qph-41" target="-De1HTk-nKf7eVAS1qph-71">
          <mxGeometry relative="1" as="geometry">
            <Array as="points">
              <mxPoint x="620" y="340" />
              <mxPoint x="620" y="410" />
            </Array>
          </mxGeometry>
        </mxCell>
        <mxCell id="-De1HTk-nKf7eVAS1qph-41" value="WebSocket" style="whiteSpace=wrap;html=1;" vertex="1" parent="1">
          <mxGeometry x="480" y="320" width="120" height="40" as="geometry" />
        </mxCell>
        <mxCell id="-De1HTk-nKf7eVAS1qph-42" value="Connect" style="whiteSpace=wrap;html=1;" vertex="1" parent="1">
          <mxGeometry x="520" y="380" width="80" height="20" as="geometry" />
        </mxCell>
        <mxCell id="-De1HTk-nKf7eVAS1qph-51" style="edgeStyle=orthogonalEdgeStyle;rounded=0;orthogonalLoop=1;jettySize=auto;html=1;" edge="1" parent="1" source="-De1HTk-nKf7eVAS1qph-48" target="-De1HTk-nKf7eVAS1qph-26">
          <mxGeometry relative="1" as="geometry">
            <Array as="points">
              <mxPoint x="380" y="779.9999999999998" />
              <mxPoint x="380" y="830" />
            </Array>
          </mxGeometry>
        </mxCell>
        <mxCell id="-De1HTk-nKf7eVAS1qph-75" style="edgeStyle=orthogonalEdgeStyle;rounded=0;orthogonalLoop=1;jettySize=auto;html=1;" edge="1" parent="1" source="-De1HTk-nKf7eVAS1qph-48" target="-De1HTk-nKf7eVAS1qph-74">
          <mxGeometry relative="1" as="geometry">
            <Array as="points">
              <mxPoint x="380" y="780" />
              <mxPoint x="380" y="850" />
            </Array>
          </mxGeometry>
        </mxCell>
        <mxCell id="-De1HTk-nKf7eVAS1qph-48" value="ME:&lt;span style=&quot;background-color: transparent; color: light-dark(rgb(0, 0, 0), rgb(255, 255, 255));&quot;&gt;Matchin Engine&lt;/span&gt;" style="whiteSpace=wrap;html=1;" vertex="1" parent="1">
          <mxGeometry x="240" y="760" width="120" height="40" as="geometry" />
        </mxCell>
        <mxCell id="-De1HTk-nKf7eVAS1qph-52" value="Record" style="whiteSpace=wrap;html=1;" vertex="1" parent="1">
          <mxGeometry x="280" y="380" width="80" height="20" as="geometry" />
        </mxCell>
        <mxCell id="-De1HTk-nKf7eVAS1qph-53" style="edgeStyle=orthogonalEdgeStyle;rounded=0;orthogonalLoop=1;jettySize=auto;html=1;" edge="1" parent="1" source="-De1HTk-nKf7eVAS1qph-54" target="-De1HTk-nKf7eVAS1qph-52">
          <mxGeometry relative="1" as="geometry">
            <Array as="points">
              <mxPoint x="380" y="339.9999999999998" />
              <mxPoint x="380" y="390" />
            </Array>
          </mxGeometry>
        </mxCell>
        <mxCell id="-De1HTk-nKf7eVAS1qph-57" style="edgeStyle=orthogonalEdgeStyle;rounded=0;orthogonalLoop=1;jettySize=auto;html=1;" edge="1" parent="1" source="-De1HTk-nKf7eVAS1qph-54" target="-De1HTk-nKf7eVAS1qph-56">
          <mxGeometry relative="1" as="geometry">
            <Array as="points">
              <mxPoint x="380" y="340" />
              <mxPoint x="380" y="410" />
            </Array>
          </mxGeometry>
        </mxCell>
        <mxCell id="-De1HTk-nKf7eVAS1qph-70" style="edgeStyle=orthogonalEdgeStyle;rounded=0;orthogonalLoop=1;jettySize=auto;html=1;" edge="1" parent="1" source="-De1HTk-nKf7eVAS1qph-54" target="-De1HTk-nKf7eVAS1qph-69">
          <mxGeometry relative="1" as="geometry">
            <Array as="points">
              <mxPoint x="380" y="340" />
              <mxPoint x="380" y="430" />
            </Array>
          </mxGeometry>
        </mxCell>
        <mxCell id="-De1HTk-nKf7eVAS1qph-54" value="ME:&lt;span style=&quot;background-color: transparent; color: light-dark(rgb(0, 0, 0), rgb(255, 255, 255));&quot;&gt;Matchin Engine&lt;/span&gt;" style="whiteSpace=wrap;html=1;" vertex="1" parent="1">
          <mxGeometry x="240" y="320" width="120" height="40" as="geometry" />
        </mxCell>
        <mxCell id="-De1HTk-nKf7eVAS1qph-56" value="Match" style="whiteSpace=wrap;html=1;" vertex="1" parent="1">
          <mxGeometry x="280" y="400" width="80" height="20" as="geometry" />
        </mxCell>
        <mxCell id="-De1HTk-nKf7eVAS1qph-58" value="" style="endArrow=none;dashed=1;html=1;rounded=0;" edge="1" parent="1">
          <mxGeometry width="50" height="50" relative="1" as="geometry">
            <mxPoint x="180" y="580" as="sourcePoint" />
            <mxPoint x="180" y="580" as="targetPoint" />
            <Array as="points">
              <mxPoint x="660" y="580" />
              <mxPoint x="660" y="660" />
              <mxPoint x="180" y="660" />
            </Array>
          </mxGeometry>
        </mxCell>
        <mxCell id="-De1HTk-nKf7eVAS1qph-65" style="edgeStyle=orthogonalEdgeStyle;rounded=0;orthogonalLoop=1;jettySize=auto;html=1;" edge="1" parent="1" source="-De1HTk-nKf7eVAS1qph-59" target="-De1HTk-nKf7eVAS1qph-8">
          <mxGeometry relative="1" as="geometry">
            <Array as="points">
              <mxPoint x="580" y="700" />
            </Array>
          </mxGeometry>
        </mxCell>
        <mxCell id="-De1HTk-nKf7eVAS1qph-59" value="Product_3" style="whiteSpace=wrap;html=1;" vertex="1" parent="1">
          <mxGeometry x="520" y="600" width="120" height="40" as="geometry" />
        </mxCell>
        <mxCell id="-De1HTk-nKf7eVAS1qph-66" style="edgeStyle=orthogonalEdgeStyle;rounded=0;orthogonalLoop=1;jettySize=auto;html=1;" edge="1" parent="1" source="-De1HTk-nKf7eVAS1qph-60" target="-De1HTk-nKf7eVAS1qph-8">
          <mxGeometry relative="1" as="geometry">
            <Array as="points">
              <mxPoint x="260" y="700" />
            </Array>
          </mxGeometry>
        </mxCell>
        <mxCell id="-De1HTk-nKf7eVAS1qph-60" value="Product_1" style="whiteSpace=wrap;html=1;" vertex="1" parent="1">
          <mxGeometry x="200" y="600" width="120" height="40" as="geometry" />
        </mxCell>
        <mxCell id="-De1HTk-nKf7eVAS1qph-67" value="Web Admin Interface" style="text;html=1;align=center;verticalAlign=middle;resizable=0;points=[];autosize=1;strokeColor=none;fillColor=none;" vertex="1" parent="1">
          <mxGeometry x="180" y="550" width="130" height="30" as="geometry" />
        </mxCell>
        <mxCell id="-De1HTk-nKf7eVAS1qph-68" value="Web User Interface" style="text;html=1;align=center;verticalAlign=middle;resizable=0;points=[];autosize=1;strokeColor=none;fillColor=none;" vertex="1" parent="1">
          <mxGeometry x="180" y="30" width="130" height="30" as="geometry" />
        </mxCell>
        <mxCell id="-De1HTk-nKf7eVAS1qph-69" value="Notify" style="whiteSpace=wrap;html=1;" vertex="1" parent="1">
          <mxGeometry x="280" y="420" width="80" height="20" as="geometry" />
        </mxCell>
        <mxCell id="-De1HTk-nKf7eVAS1qph-71" value="Send" style="whiteSpace=wrap;html=1;" vertex="1" parent="1">
          <mxGeometry x="520" y="400" width="80" height="20" as="geometry" />
        </mxCell>
        <mxCell id="-De1HTk-nKf7eVAS1qph-74" value="Notify" style="whiteSpace=wrap;html=1;" vertex="1" parent="1">
          <mxGeometry x="280" y="840" width="80" height="20" as="geometry" />
        </mxCell>
        <mxCell id="fch6J81OmZ79uEB_WLW9-3" style="edgeStyle=orthogonalEdgeStyle;rounded=0;orthogonalLoop=1;jettySize=auto;html=1;" edge="1" parent="1" source="fch6J81OmZ79uEB_WLW9-1" target="-De1HTk-nKf7eVAS1qph-54">
          <mxGeometry relative="1" as="geometry" />
        </mxCell>
        <mxCell id="fch6J81OmZ79uEB_WLW9-4" style="edgeStyle=orthogonalEdgeStyle;rounded=0;orthogonalLoop=1;jettySize=auto;html=1;" edge="1" parent="1" source="fch6J81OmZ79uEB_WLW9-1" target="-De1HTk-nKf7eVAS1qph-41">
          <mxGeometry relative="1" as="geometry" />
        </mxCell>
        <mxCell id="fch6J81OmZ79uEB_WLW9-1" value="Auth" style="whiteSpace=wrap;html=1;" vertex="1" parent="1">
          <mxGeometry x="360" y="240" width="120" height="40" as="geometry" />
        </mxCell>
      </root>
    </mxGraphModel>
  </diagram>
  <diagram id="SsDOryQCQqefAeVnCGYX" name="WUI">
    <mxGraphModel dx="1175" dy="1405" grid="1" gridSize="10" guides="1" tooltips="1" connect="1" arrows="1" fold="1" page="1" pageScale="1" pageWidth="850" pageHeight="1100" math="0" shadow="0">
      <root>
        <mxCell id="0" />
        <mxCell id="1" parent="0" />
        <mxCell id="MNvPDS5tH34KyV8GQZUk-27" style="edgeStyle=orthogonalEdgeStyle;rounded=0;orthogonalLoop=1;jettySize=auto;html=1;" edge="1" parent="1" source="MNvPDS5tH34KyV8GQZUk-2" target="MNvPDS5tH34KyV8GQZUk-10">
          <mxGeometry relative="1" as="geometry" />
        </mxCell>
        <mxCell id="MNvPDS5tH34KyV8GQZUk-2" value="Client_1" style="whiteSpace=wrap;html=1;" vertex="1" parent="1">
          <mxGeometry x="400" y="120" width="120" height="40" as="geometry" />
        </mxCell>
        <mxCell id="MNvPDS5tH34KyV8GQZUk-28" style="edgeStyle=orthogonalEdgeStyle;rounded=0;orthogonalLoop=1;jettySize=auto;html=1;" edge="1" parent="1" source="MNvPDS5tH34KyV8GQZUk-10" target="MNvPDS5tH34KyV8GQZUk-13">
          <mxGeometry relative="1" as="geometry" />
        </mxCell>
        <mxCell id="MNvPDS5tH34KyV8GQZUk-29" style="edgeStyle=orthogonalEdgeStyle;rounded=0;orthogonalLoop=1;jettySize=auto;html=1;" edge="1" parent="1" source="MNvPDS5tH34KyV8GQZUk-10" target="MNvPDS5tH34KyV8GQZUk-19">
          <mxGeometry relative="1" as="geometry" />
        </mxCell>
        <mxCell id="MNvPDS5tH34KyV8GQZUk-10" value="Auth" style="whiteSpace=wrap;html=1;" vertex="1" parent="1">
          <mxGeometry x="400" y="200" width="120" height="40" as="geometry" />
        </mxCell>
        <mxCell id="MNvPDS5tH34KyV8GQZUk-13" value="WebSocket" style="whiteSpace=wrap;html=1;" vertex="1" parent="1">
          <mxGeometry x="480" y="280" width="120" height="40" as="geometry" />
        </mxCell>
        <mxCell id="MNvPDS5tH34KyV8GQZUk-19" value="ME:&lt;span style=&quot;background-color: transparent; color: light-dark(rgb(0, 0, 0), rgb(255, 255, 255));&quot;&gt;Matchin Engine&lt;/span&gt;" style="whiteSpace=wrap;html=1;" vertex="1" parent="1">
          <mxGeometry x="320" y="280" width="120" height="40" as="geometry" />
        </mxCell>
      </root>
    </mxGraphModel>
  </diagram>
</mxfile>
